{
    "asset" : {
        "generator" : "Khronos glTF Blender I/O v1.8.19",
        "version" : "2.0"
    },
    "scene" : 0,
    "scenes" : [
        {
            "name" : "Scene",
            "nodes" : [
                0
            ]
        }
    ],
    "nodes" : [
        {
            "mesh" : 0,
            "name" : "\u529e\u516c\u697c175"
        }
    ],
    "materials" : [
        {
            "doubleSided" : true,
            "name" : "00\u5c42\u677fs.001",
            "pbrMetallicRoughness" : {
                "baseColorTexture" : {
                    "index" : 0
                },
                "metallicFactor" : 0,
                "roughnessFactor" : 0.5
            }
        },
        {
            "doubleSided" : true,
            "name" : "00\u7a97\u6846.019",
            "pbrMetallicRoughness" : {
                "baseColorFactor" : [
                    0.2509799897670746,
                    0.2980389893054962,
                    0.34902000427246094,
                    1
                ],
                "metallicFactor" : 0,
                "roughnessFactor" : 0.5
            }
        },
        {
            "doubleSided" : true,
            "name" : "00\u680f\u6746.006",
            "pbrMetallicRoughness" : {
                "baseColorFactor" : [
                    0.36862701177597046,
                    0.4000000059604645,
                    0.36078399419784546,
                    1
                ],
                "metallicFactor" : 0,
                "roughnessFactor" : 0.5
            }
        },
        {
            "doubleSided" : true,
            "name" : "Material #28",
            "pbrMetallicRoughness" : {
                "metallicFactor" : 0,
                "roughnessFactor" : 0.5
            }
        },
        {
            "doubleSided" : true,
            "name" : "Material #176.001",
            "pbrMetallicRoughness" : {
                "baseColorTexture" : {
                    "index" : 1
                },
                "metallicFactor" : 0,
                "roughnessFactor" : 0.5
            }
        },
        {
            "doubleSided" : true,
            "name" : "00\u73bb\u7483.024",
            "pbrMetallicRoughness" : {
                "baseColorFactor" : [
                    0.564706027507782,
                    0.7372549772262573,
                    0.8352940082550049,
                    1
                ],
                "metallicFactor" : 0,
                "roughnessFactor" : 0.5
            }
        },
        {
            "doubleSided" : true,
            "name" : "00\u8e0f\u6b65.025",
            "pbrMetallicRoughness" : {
                "baseColorTexture" : {
                    "index" : 2
                },
                "metallicFactor" : 0,
                "roughnessFactor" : 0.5
            }
        }
    ],
    "meshes" : [
        {
            "name" : "Obj3d66-1207533-5637-362",
            "primitives" : [
                {
                    "attributes" : {
                        "POSITION" : 0,
                        "NORMAL" : 1,
                        "TEXCOORD_0" : 2
                    },
                    "indices" : 3,
                    "material" : 0
                },
                {
                    "attributes" : {
                        "POSITION" : 4,
                        "NORMAL" : 5,
                        "TEXCOORD_0" : 6
                    },
                    "indices" : 7,
                    "material" : 1
                },
                {
                    "attributes" : {
                        "POSITION" : 8,
                        "NORMAL" : 9,
                        "TEXCOORD_0" : 10
                    },
                    "indices" : 11,
                    "material" : 2
                },
                {
                    "attributes" : {
                        "POSITION" : 12,
                        "NORMAL" : 13,
                        "TEXCOORD_0" : 14
                    },
                    "indices" : 15,
                    "material" : 3
                },
                {
                    "attributes" : {
                        "POSITION" : 16,
                        "NORMAL" : 17,
                        "TEXCOORD_0" : 18
                    },
                    "indices" : 19,
                    "material" : 4
                },
                {
                    "attributes" : {
                        "POSITION" : 20,
                        "NORMAL" : 21,
                        "TEXCOORD_0" : 22
                    },
                    "indices" : 23,
                    "material" : 5
                },
                {
                    "attributes" : {
                        "POSITION" : 24,
                        "NORMAL" : 25,
                        "TEXCOORD_0" : 26
                    },
                    "indices" : 27,
                    "material" : 6
                }
            ]
        }
    ],
    "textures" : [
        {
            "sampler" : 0,
            "source" : 0
        },
        {
            "sampler" : 0,
            "source" : 1
        },
        {
            "sampler" : 0,
            "source" : 2
        }
    ],
    "images" : [
        {
            "bufferView" : 4,
            "mimeType" : "image/jpeg",
            "name" : "3d66Model-1207533-files-1"
        },
        {
            "bufferView" : 21,
            "mimeType" : "image/jpeg",
            "name" : "3d66Model-1207533-files-26"
        },
        {
            "bufferView" : 30,
            "mimeType" : "image/jpeg",
            "name" : "3d66Model-1207533-files-7"
        }
    ],
    "accessors" : [
        {
            "bufferView" : 0,
            "componentType" : 5126,
            "count" : 120,
            "max" : [
                28.44234848022461,
                14.85980224609375,
                7.409311294555664
            ],
            "min" : [
                -28.442310333251953,
                5.7220458984375e-06,
                -10.862800598144531
            ],
            "type" : "VEC3"
        },
        {
            "bufferView" : 1,
            "componentType" : 5126,
            "count" : 120,
            "type" : "VEC3"
        },
        {
            "bufferView" : 2,
            "componentType" : 5126,
            "count" : 120,
            "type" : "VEC2"
        },
        {
            "bufferView" : 3,
            "componentType" : 5123,
            "count" : 180,
            "type" : "SCALAR"
        },
        {
            "bufferView" : 5,
            "componentType" : 5126,
            "count" : 8736,
            "max" : [
                28.26021957397461,
                14.446308135986328,
                7.638771057128906
            ],
            "min" : [
                -24.843891143798828,
                3.814697265625e-06,
                -4.034213542938232
            ],
            "type" : "VEC3"
        },
        {
            "bufferView" : 6,
            "componentType" : 5126,
            "count" : 8736,
            "type" : "VEC3"
        },
        {
            "bufferView" : 7,
            "componentType" : 5126,
            "count" : 8736,
            "type" : "VEC2"
        },
        {
            "bufferView" : 8,
            "componentType" : 5123,
            "count" : 14784,
            "type" : "SCALAR"
        },
        {
            "bufferView" : 9,
            "componentType" : 5126,
            "count" : 3264,
            "max" : [
                28.049339294433594,
                12.297085762023926,
                8.173630714416504
            ],
            "min" : [
                -24.843891143798828,
                0.550633430480957,
                0.7635822296142578
            ],
            "type" : "VEC3"
        },
        {
            "bufferView" : 10,
            "componentType" : 5126,
            "count" : 3264,
            "type" : "VEC3"
        },
        {
            "bufferView" : 11,
            "componentType" : 5126,
            "count" : 3264,
            "type" : "VEC2"
        },
        {
            "bufferView" : 12,
            "componentType" : 5123,
            "count" : 4896,
            "type" : "SCALAR"
        },
        {
            "bufferView" : 13,
            "componentType" : 5126,
            "count" : 1092,
            "max" : [
                28.142345428466797,
                14.582005500793457,
                11.262818336486816
            ],
            "min" : [
                -24.843883514404297,
                5.7220458984375e-06,
                0.7645668983459473
            ],
            "type" : "VEC3"
        },
        {
            "bufferView" : 14,
            "componentType" : 5126,
            "count" : 1092,
            "type" : "VEC3"
        },
        {
            "bufferView" : 15,
            "componentType" : 5126,
            "count" : 1092,
            "type" : "VEC2"
        },
        {
            "bufferView" : 16,
            "componentType" : 5123,
            "count" : 1704,
            "type" : "SCALAR"
        },
        {
            "bufferView" : 17,
            "componentType" : 5126,
            "count" : 1404,
            "max" : [
                28.84234619140625,
                15.74597454071045,
                8.262819290161133
            ],
            "min" : [
                -28.84234619140625,
                0,
                -11.262818336486816
            ],
            "type" : "VEC3"
        },
        {
            "bufferView" : 18,
            "componentType" : 5126,
            "count" : 1404,
            "type" : "VEC3"
        },
        {
            "bufferView" : 19,
            "componentType" : 5126,
            "count" : 1404,
            "type" : "VEC2"
        },
        {
            "bufferView" : 20,
            "componentType" : 5123,
            "count" : 2172,
            "type" : "SCALAR"
        },
        {
            "bufferView" : 22,
            "componentType" : 5126,
            "count" : 156,
            "max" : [
                28.153854370117188,
                14.446409225463867,
                7.598819732666016
            ],
            "min" : [
                -24.843883514404297,
                1.9073486328125e-06,
                -4.034221649169922
            ],
            "type" : "VEC3"
        },
        {
            "bufferView" : 23,
            "componentType" : 5126,
            "count" : 156,
            "type" : "VEC3"
        },
        {
            "bufferView" : 24,
            "componentType" : 5126,
            "count" : 156,
            "type" : "VEC2"
        },
        {
            "bufferView" : 25,
            "componentType" : 5123,
            "count" : 240,
            "type" : "SCALAR"
        },
        {
            "bufferView" : 26,
            "componentType" : 5126,
            "count" : 48,
            "max" : [
                5.4369378089904785,
                0.3000059127807617,
                11.055455207824707
            ],
            "min" : [
                -4.87625789642334,
                6.67572021484375e-06,
                7.0182294845581055
            ],
            "type" : "VEC3"
        },
        {
            "bufferView" : 27,
            "componentType" : 5126,
            "count" : 48,
            "type" : "VEC3"
        },
        {
            "bufferView" : 28,
            "componentType" : 5126,
            "count" : 48,
            "type" : "VEC2"
        },
        {
            "bufferView" : 29,
            "componentType" : 5123,
            "count" : 72,
            "type" : "SCALAR"
        }
    ],
    "bufferViews" : [
        {
            "buffer" : 0,
            "byteLength" : 1440,
            "byteOffset" : 0
        },
        {
            "buffer" : 0,
            "byteLength" : 1440,
            "byteOffset" : 1440
        },
        {
            "buffer" : 0,
            "byteLength" : 960,
            "byteOffset" : 2880
        },
        {
            "buffer" : 0,
            "byteLength" : 360,
            "byteOffset" : 3840
        },
        {
            "buffer" : 0,
            "byteLength" : 12584,
            "byteOffset" : 4200
        },
        {
            "buffer" : 0,
            "byteLength" : 104832,
            "byteOffset" : 16784
        },
        {
            "buffer" : 0,
            "byteLength" : 104832,
            "byteOffset" : 121616
        },
        {
            "buffer" : 0,
            "byteLength" : 69888,
            "byteOffset" : 226448
        },
        {
            "buffer" : 0,
            "byteLength" : 29568,
            "byteOffset" : 296336
        },
        {
            "buffer" : 0,
            "byteLength" : 39168,
            "byteOffset" : 325904
        },
        {
            "buffer" : 0,
            "byteLength" : 39168,
            "byteOffset" : 365072
        },
        {
            "buffer" : 0,
            "byteLength" : 26112,
            "byteOffset" : 404240
        },
        {
            "buffer" : 0,
            "byteLength" : 9792,
            "byteOffset" : 430352
        },
        {
            "buffer" : 0,
            "byteLength" : 13104,
            "byteOffset" : 440144
        },
        {
            "buffer" : 0,
            "byteLength" : 13104,
            "byteOffset" : 453248
        },
        {
            "buffer" : 0,
            "byteLength" : 8736,
            "byteOffset" : 466352
        },
        {
            "buffer" : 0,
            "byteLength" : 3408,
            "byteOffset" : 475088
        },
        {
            "buffer" : 0,
            "byteLength" : 16848,
            "byteOffset" : 478496
        },
        {
            "buffer" : 0,
            "byteLength" : 16848,
            "byteOffset" : 495344
        },
        {
            "buffer" : 0,
            "byteLength" : 11232,
            "byteOffset" : 512192
        },
        {
            "buffer" : 0,
            "byteLength" : 4344,
            "byteOffset" : 523424
        },
        {
            "buffer" : 0,
            "byteLength" : 69704,
            "byteOffset" : 527768
        },
        {
            "buffer" : 0,
            "byteLength" : 1872,
            "byteOffset" : 597472
        },
        {
            "buffer" : 0,
            "byteLength" : 1872,
            "byteOffset" : 599344
        },
        {
            "buffer" : 0,
            "byteLength" : 1248,
            "byteOffset" : 601216
        },
        {
            "buffer" : 0,
            "byteLength" : 480,
            "byteOffset" : 602464
        },
        {
            "buffer" : 0,
            "byteLength" : 576,
            "byteOffset" : 602944
        },
        {
            "buffer" : 0,
            "byteLength" : 576,
            "byteOffset" : 603520
        },
        {
            "buffer" : 0,
            "byteLength" : 384,
            "byteOffset" : 604096
        },
        {
            "buffer" : 0,
            "byteLength" : 144,
            "byteOffset" : 604480
        },
        {
            "buffer" : 0,
            "byteLength" : 91327,
            "byteOffset" : 604624
        }
    ],
    "samplers" : [
        {
            "magFilter" : 9729,
            "minFilter" : 9987
        }
    ],
    "buffers" : [
        {
            "byteLength" : 695952,
            "uri" : "data:application/octet-stream;base64,"
        }
    ]
}
