{"asset":{"version":"2.0","generator":"babylon.js glTF exporter for 3dsmax 2021 v20220628.14"},"scene":0,"scenes":[{"nodes":[0,1,2,3,4,5,6,7,8,9]}],"nodes":[{"mesh":0,"name":"对象"},{"mesh":1,"name":"对象001"},{"mesh":2,"name":"对象002"},{"mesh":3,"name":"对象003"},{"mesh":4,"name":"对象004"},{"mesh":5,"name":"对象005"},{"mesh":6,"name":"对象006"},{"mesh":7,"name":"对象007"},{"mesh":8,"name":"对象008"},{"mesh":9,"name":"对象009"}],"meshes":[{"primitives":[{"attributes":{"POSITION":1,"NORMAL":2,"COLOR_0":3,"TEXCOORD_0":4,"TEXCOORD_1":5},"indices":0,"material":0}],"name":"对象"},{"primitives":[{"attributes":{"POSITION":7,"NORMAL":8,"COLOR_0":9,"TEXCOORD_0":10,"TEXCOORD_1":11},"indices":6,"material":1}],"name":"对象001"},{"primitives":[{"attributes":{"POSITION":13,"NORMAL":14,"COLOR_0":15,"TEXCOORD_0":16,"TEXCOORD_1":17},"indices":12,"material":2}],"name":"对象002"},{"primitives":[{"attributes":{"POSITION":19,"NORMAL":20,"TEXCOORD_0":21,"TEXCOORD_1":22},"indices":18,"material":3}],"name":"对象003"},{"primitives":[{"attributes":{"POSITION":24,"NORMAL":25,"COLOR_0":26,"TEXCOORD_0":27,"TEXCOORD_1":28},"indices":23,"material":4}],"name":"对象004"},{"primitives":[{"attributes":{"POSITION":30,"NORMAL":31,"COLOR_0":32,"TEXCOORD_0":33,"TEXCOORD_1":34},"indices":29,"material":5}],"name":"对象005"},{"primitives":[{"attributes":{"POSITION":36,"NORMAL":37,"COLOR_0":38,"TEXCOORD_0":39,"TEXCOORD_1":40},"indices":35,"material":6}],"name":"对象006"},{"primitives":[{"attributes":{"POSITION":42,"NORMAL":43,"COLOR_0":44,"TEXCOORD_0":45,"TEXCOORD_1":46},"indices":41,"material":7}],"name":"对象007"},{"primitives":[{"attributes":{"POSITION":48,"NORMAL":49,"COLOR_0":50,"TEXCOORD_0":51,"TEXCOORD_1":52},"indices":47,"material":8}],"name":"对象008"},{"primitives":[{"attributes":{"POSITION":54,"NORMAL":55,"COLOR_0":56,"TEXCOORD_0":57,"TEXCOORD_1":58},"indices":53,"material":9}],"name":"对象009"}],"accessors":[{"bufferView":0,"componentType":5123,"count":42,"type":"SCALAR","name":"accessorIndices"},{"bufferView":1,"componentType":5126,"count":28,"max":[0.8234558,2.95339417,6.27278137],"min":[-4.97909546,0.6129606,-3.2966156],"type":"VEC3","name":"accessorPositions"},{"bufferView":1,"byteOffset":336,"componentType":5126,"count":28,"type":"VEC3","name":"accessorNormals"},{"bufferView":2,"componentType":5126,"count":28,"type":"VEC4","name":"accessorColors"},{"bufferView":3,"componentType":5126,"count":28,"type":"VEC2","name":"accessorUVs"},{"bufferView":3,"byteOffset":224,"componentType":5126,"count":28,"type":"VEC2","name":"accessorUV2s"},{"bufferView":0,"byteOffset":84,"componentType":5123,"count":66,"type":"SCALAR","name":"accessorIndices"},{"bufferView":1,"byteOffset":672,"componentType":5126,"count":40,"max":[1.23092651,0.612962,6.680237],"min":[-5.386566,0.45693326,-3.704071],"type":"VEC3","name":"accessorPositions"},{"bufferView":1,"byteOffset":1152,"componentType":5126,"count":40,"type":"VEC3","name":"accessorNormals"},{"bufferView":2,"byteOffset":448,"componentType":5126,"count":40,"type":"VEC4","name":"accessorColors"},{"bufferView":3,"byteOffset":448,"componentType":5126,"count":40,"type":"VEC2","name":"accessorUVs"},{"bufferView":3,"byteOffset":768,"componentType":5126,"count":40,"type":"VEC2","name":"accessorUV2s"},{"bufferView":0,"byteOffset":216,"componentType":5123,"count":642,"type":"SCALAR","name":"accessorIndices"},{"bufferView":1,"byteOffset":1632,"componentType":5126,"count":424,"max":[1.23092651,3.10942364,6.680237],"min":[-5.386566,0.612959862,-3.704071],"type":"VEC3","name":"accessorPositions"},{"bufferView":1,"byteOffset":6720,"componentType":5126,"count":424,"type":"VEC3","name":"accessorNormals"},{"bufferView":2,"byteOffset":1088,"componentType":5126,"count":424,"type":"VEC4","name":"accessorColors"},{"bufferView":3,"byteOffset":1088,"componentType":5126,"count":424,"type":"VEC2","name":"accessorUVs"},{"bufferView":3,"byteOffset":4480,"componentType":5126,"count":424,"type":"VEC2","name":"accessorUV2s"},{"bufferView":0,"byteOffset":1500,"componentType":5123,"count":288,"type":"SCALAR","name":"accessorIndices"},{"bufferView":1,"byteOffset":11808,"componentType":5126,"count":192,"max":[9.134308,6.300697,11.4929733],"min":[-9.748962,0.656932831,-11.3592911],"type":"VEC3","name":"accessorPositions"},{"bufferView":1,"byteOffset":14112,"componentType":5126,"count":192,"type":"VEC3","name":"accessorNormals"},{"bufferView":3,"byteOffset":7872,"componentType":5126,"count":192,"type":"VEC2","name":"accessorUVs"},{"bufferView":3,"byteOffset":9408,"componentType":5126,"count":192,"type":"VEC2","name":"accessorUV2s"},{"bufferView":0,"byteOffset":2076,"componentType":5123,"count":72,"type":"SCALAR","name":"accessorIndices"},{"bufferView":1,"byteOffset":16416,"componentType":5126,"count":48,"max":[8.069763,0.6569345,9.879578],"min":[-8.786194,0.6569345,-10.2510376],"type":"VEC3","name":"accessorPositions"},{"bufferView":1,"byteOffset":16992,"componentType":5126,"count":48,"type":"VEC3","name":"accessorNormals"},{"bufferView":2,"byteOffset":7872,"componentType":5126,"count":48,"type":"VEC4","name":"accessorColors"},{"bufferView":3,"byteOffset":10944,"componentType":5126,"count":48,"type":"VEC2","name":"accessorUVs"},{"bufferView":3,"byteOffset":11328,"componentType":5126,"count":48,"type":"VEC2","name":"accessorUV2s"},{"bufferView":0,"byteOffset":2220,"componentType":5123,"count":288,"type":"SCALAR","name":"accessorIndices"},{"bufferView":1,"byteOffset":17568,"componentType":5126,"count":96,"max":[8.297546,0.6569345,10.1144409],"min":[-9.026794,0.6569345,-10.5131226],"type":"VEC3","name":"accessorPositions"},{"bufferView":1,"byteOffset":18720,"componentType":5126,"count":96,"type":"VEC3","name":"accessorNormals"},{"bufferView":2,"byteOffset":8640,"componentType":5126,"count":96,"type":"VEC4","name":"accessorColors"},{"bufferView":3,"byteOffset":11712,"componentType":5126,"count":96,"type":"VEC2","name":"accessorUVs"},{"bufferView":3,"byteOffset":12480,"componentType":5126,"count":96,"type":"VEC2","name":"accessorUV2s"},{"bufferView":0,"byteOffset":2796,"componentType":5123,"count":204,"type":"SCALAR","name":"accessorIndices"},{"bufferView":1,"byteOffset":19872,"componentType":5126,"count":70,"max":[9.39324951,0.456932783,10.2774811],"min":[-9.366882,0.456932783,-11.137619],"type":"VEC3","name":"accessorPositions"},{"bufferView":1,"byteOffset":20712,"componentType":5126,"count":70,"type":"VEC3","name":"accessorNormals"},{"bufferView":2,"byteOffset":10176,"componentType":5126,"count":70,"type":"VEC4","name":"accessorColors"},{"bufferView":3,"byteOffset":13248,"componentType":5126,"count":70,"type":"VEC2","name":"accessorUVs"},{"bufferView":3,"byteOffset":13808,"componentType":5126,"count":70,"type":"VEC2","name":"accessorUV2s"},{"bufferView":0,"byteOffset":3204,"componentType":5123,"count":288,"type":"SCALAR","name":"accessorIndices"},{"bufferView":1,"byteOffset":21552,"componentType":5126,"count":192,"max":[8.297546,0.6569345,10.1144409],"min":[-9.026794,0.4569347,-10.5131226],"type":"VEC3","name":"accessorPositions"},{"bufferView":1,"byteOffset":23856,"componentType":5126,"count":192,"type":"VEC3","name":"accessorNormals"},{"bufferView":2,"byteOffset":11296,"componentType":5126,"count":192,"type":"VEC4","name":"accessorColors"},{"bufferView":3,"byteOffset":14368,"componentType":5126,"count":192,"type":"VEC2","name":"accessorUVs"},{"bufferView":3,"byteOffset":15904,"componentType":5126,"count":192,"type":"VEC2","name":"accessorUV2s"},{"bufferView":0,"byteOffset":3780,"componentType":5123,"count":840,"type":"SCALAR","name":"accessorIndices"},{"bufferView":1,"byteOffset":26160,"componentType":5126,"count":836,"max":[9.748962,0.456932783,10.6331329],"min":[-9.722229,2.38418579E-07,-11.4929657],"type":"VEC3","name":"accessorPositions"},{"bufferView":1,"byteOffset":36192,"componentType":5126,"count":836,"type":"VEC3","name":"accessorNormals"},{"bufferView":2,"byteOffset":14368,"componentType":5126,"count":836,"type":"VEC4","name":"accessorColors"},{"bufferView":3,"byteOffset":17440,"componentType":5126,"count":836,"type":"VEC2","name":"accessorUVs"},{"bufferView":3,"byteOffset":24128,"componentType":5126,"count":836,"type":"VEC2","name":"accessorUV2s"},{"bufferView":0,"byteOffset":5460,"componentType":5123,"count":36,"type":"SCALAR","name":"accessorIndices"},{"bufferView":1,"byteOffset":46224,"componentType":5126,"count":36,"max":[1.23092651,4.61994648,6.680237],"min":[-5.386566,3.10942364,-3.704071],"type":"VEC3","name":"accessorPositions"},{"bufferView":1,"byteOffset":46656,"componentType":5126,"count":36,"type":"VEC3","name":"accessorNormals"},{"bufferView":2,"byteOffset":27744,"componentType":5126,"count":36,"type":"VEC4","name":"accessorColors"},{"bufferView":3,"byteOffset":30816,"componentType":5126,"count":36,"type":"VEC2","name":"accessorUVs"},{"bufferView":3,"byteOffset":31104,"componentType":5126,"count":36,"type":"VEC2","name":"accessorUV2s"}],"bufferViews":[{"buffer":0,"byteLength":5532,"name":"bufferViewScalar"},{"buffer":0,"byteOffset":5532,"byteLength":47088,"byteStride":12,"name":"bufferViewFloatVec3"},{"buffer":0,"byteOffset":52620,"byteLength":28320,"byteStride":16,"name":"bufferViewFloatVec4"},{"buffer":0,"byteOffset":80940,"byteLength":31392,"byteStride":8,"name":"bufferViewFloatVec2"}],"buffers":[{"uri":"9D93121255F6403C95277E850C0D801B.bin","byteLength":112332}],"materials":[{"pbrMetallicRoughness":{"baseColorTexture":{"index":0},"metallicFactor":0.0},"alphaMode":"MASK","doubleSided":true,"name":"scltdfx_100","extras":{"babylonSeparateCullingPass":false}},{"pbrMetallicRoughness":{"baseColorTexture":{"index":1},"metallicFactor":0.0,"roughnessFactor":0.450053632},"name":"JZ_01_VRayCompleteMap_dmzs070","extras":{"启用":false}},{"pbrMetallicRoughness":{"baseColorFactor":[0.13333334,0.0274509825,0.0235294141,1.0],"metallicFactor":0.0,"roughnessFactor":0.450053632},"name":"JZ_01_VRayCompleteMap_zhufng02"},{"pbrMetallicRoughness":{"baseColorTexture":{"index":2},"metallicFactor":0.0},"alphaMode":"MASK","doubleSided":true,"name":"SHU_01_VRayCompleteMap_BS_tree_48","extras":{"babylonSeparateCullingPass":false}},{"pbrMetallicRoughness":{"baseColorTexture":{"index":3},"metallicFactor":0.0,"roughnessFactor":0.450053632},"name":"DX_04_VRayCompleteMap_DX_02_VRayCompleteMap_GRS_10245"},{"pbrMetallicRoughness":{"baseColorTexture":{"index":4},"metallicFactor":0.0,"roughnessFactor":0.450053632},"name":"DX_04_VRayCompleteMap_DX_02_VRayCompleteMap_BS_F_491"},{"pbrMetallicRoughness":{"baseColorTexture":{"index":5},"metallicFactor":0.0,"roughnessFactor":0.450053632},"name":"DX_04_VRayCompleteMap_BS_T_445_01"},{"pbrMetallicRoughness":{"baseColorTexture":{"index":6},"metallicFactor":0.0,"roughnessFactor":0.450053632},"name":"DX_04_VRayCompleteMap_DX_02_VRayCompleteMap_BS_T_306"},{"pbrMetallicRoughness":{"baseColorTexture":{"index":7},"metallicFactor":0.0,"roughnessFactor":0.450053632},"name":"Material #30417"},{"pbrMetallicRoughness":{"baseColorTexture":{"index":8},"metallicFactor":0.0,"roughnessFactor":0.450053632},"name":"JZ_01_VRayCompleteMap_clay23M"}],"textures":[{"sampler":0,"source":0,"name":"scltdfx_100.png"},{"sampler":0,"source":1,"name":"dmzs070.jpg"},{"sampler":0,"source":2,"name":"BS_tree_48.png"},{"sampler":0,"source":3,"name":"GRS_10245.jpg"},{"sampler":0,"source":4,"name":"BS_F_491.jpg"},{"sampler":0,"source":5,"name":"BS_T_445_01.png"},{"sampler":0,"source":6,"name":"BS_T_306.jpg"},{"sampler":0,"source":7,"name":"dx030.jpg"},{"sampler":0,"source":8,"name":"clay23M.jpg"}],"images":[{"uri":"scltdfx_100.png"},{"uri":"dmzs070.jpg"},{"uri":"BS_tree_48.png"},{"uri":"GRS_10245.jpg"},{"uri":"BS_F_491.jpg"},{"uri":"BS_T_445_01.png"},{"uri":"BS_T_306.jpg"},{"uri":"dx030.jpg"},{"uri":"clay23M.jpg"}],"samplers":[{"magFilter":9729,"minFilter":9987}]}