{
  "accessors": [
    {
      "bufferView": 1,
      "componentType": 5126,
      "count": 232,
      "max": [
        100.0,
        100.0,
        0.0
      ],
      "min": [
        -100.0,
        -100.0,
        -0.5
      ],
      "type": "VEC3"
    },
    {
      "bufferView": 1,
      "byteOffset": 2784,
      "componentType": 5126,
      "count": 232,
      "max": [
        1.0,
        1.0,
        1.0
      ],
      "min": [
        -1.0,
        -1.0,
        0.0
      ],
      "type": "VEC3"
    },
    {
      "bufferView": 0,
      "componentType": 5125,
      "count": 504,
      "type": "SCALAR"
    },
    {
      "bufferView": 1,
      "byteOffset": 5568,
      "componentType": 5126,
      "count": 3427,
      "max": [
        98.75,
        98.75,
        17.10000228881836
      ],
      "min": [
        -98.75,
        -98.75,
        2.6614580154418945
      ],
      "type": "VEC3"
    },
    {
      "bufferView": 1,
      "byteOffset": 46692,
      "componentType": 5126,
      "count": 3427,
      "max": [
        1.0,
        1.0,
        1.0
      ],
      "min": [
        -1.0,
        -1.0,
        -0.019500194117426872
      ],
      "type": "VEC3"
    },
    {
      "bufferView": 0,
      "byteOffset": 2016,
      "componentType": 5125,
      "count": 8004,
      "type": "SCALAR"
    },
    {
      "bufferView": 1,
      "byteOffset": 87816,
      "componentType": 5126,
      "count": 342,
      "max": [
        94.625,
        97.40962982177734,
        2.8125
      ],
      "min": [
        -98.75,
        -94.77951049804688,
        0.0
      ],
      "type": "VEC3"
    },
    {
      "bufferView": 1,
      "byteOffset": 91920,
      "componentType": 5126,
      "count": 342,
      "max": [
        1.0,
        1.0,
        0.0
      ],
      "min": [
        -1.0,
        -1.0,
        0.0
      ],
      "type": "VEC3"
    },
    {
      "bufferView": 0,
      "byteOffset": 34032,
      "componentType": 5125,
      "count": 558,
      "type": "SCALAR"
    },
    {
      "bufferView": 1,
      "byteOffset": 96024,
      "componentType": 5126,
      "count": 1226,
      "max": [
        9.89498233795166,
        9.041179656982422,
        6.131227970123291
      ],
      "min": [
        -10.551617622375488,
        -13.753475189208984,
        -3.199999991920777e-05
      ],
      "type": "VEC3"
    },
    {
      "bufferView": 1,
      "byteOffset": 110736,
      "componentType": 5126,
      "count": 1226,
      "max": [
        1.0,
        1.0,
        1.0
      ],
      "min": [
        -1.0,
        -1.0,
        -1.0
      ],
      "type": "VEC3"
    },
    {
      "bufferView": 0,
      "byteOffset": 36264,
      "componentType": 5125,
      "count": 6834,
      "type": "SCALAR"
    },
    {
      "bufferView": 1,
      "byteOffset": 125448,
      "componentType": 5126,
      "count": 3204,
      "max": [
        97.5,
        97.5,
        25.29957389831543
      ],
      "min": [
        -97.5,
        -97.5,
        0.0
      ],
      "type": "VEC3"
    },
    {
      "bufferView": 1,
      "byteOffset": 163896,
      "componentType": 5126,
      "count": 3204,
      "max": [
        1.0,
        1.0,
        0.9949033260345459
      ],
      "min": [
        -1.0,
        -1.0,
        -1.0
      ],
      "type": "VEC3"
    },
    {
      "bufferView": 0,
      "byteOffset": 63600,
      "componentType": 5125,
      "count": 12450,
      "type": "SCALAR"
    },
    {
      "bufferView": 1,
      "byteOffset": 202344,
      "componentType": 5126,
      "count": 5772,
      "max": [
        71.5625,
        97.5,
        14.625
      ],
      "min": [
        -98.4375,
        -97.5,
        0.0
      ],
      "type": "VEC3"
    },
    {
      "bufferView": 1,
      "byteOffset": 271608,
      "componentType": 5126,
      "count": 5772,
      "max": [
        1.0,
        1.0,
        1.0
      ],
      "min": [
        -1.0,
        -1.0,
        -1.0
      ],
      "type": "VEC3"
    },
    {
      "bufferView": 0,
      "byteOffset": 113400,
      "componentType": 5125,
      "count": 14172,
      "type": "SCALAR"
    },
    {
      "bufferView": 1,
      "byteOffset": 340872,
      "componentType": 5126,
      "count": 6560,
      "max": [
        97.5,
        97.5,
        14.625
      ],
      "min": [
        -96.61283874511719,
        -84.1031723022461,
        0.0
      ],
      "type": "VEC3"
    },
    {
      "bufferView": 1,
      "byteOffset": 419592,
      "componentType": 5126,
      "count": 6560,
      "max": [
        1.0,
        1.0,
        1.0
      ],
      "min": [
        -1.0,
        -1.0,
        -1.0
      ],
      "type": "VEC3"
    },
    {
      "bufferView": 0,
      "byteOffset": 170088,
      "componentType": 5125,
      "count": 14898,
      "type": "SCALAR"
    },
    {
      "bufferView": 1,
      "byteOffset": 498312,
      "componentType": 5126,
      "count": 7567,
      "max": [
        96.75,
        96.75,
        26.80000114440918
      ],
      "min": [
        -96.61283874511719,
        -96.75,
        0.0
      ],
      "type": "VEC3"
    },
    {
      "bufferView": 1,
      "byteOffset": 589116,
      "componentType": 5126,
      "count": 7567,
      "max": [
        1.0,
        1.0,
        1.0
      ],
      "min": [
        -1.0,
        -1.0,
        -1.0
      ],
      "type": "VEC3"
    },
    {
      "bufferView": 0,
      "byteOffset": 229680,
      "componentType": 5125,
      "count": 14913,
      "type": "SCALAR"
    },
    {
      "bufferView": 1,
      "byteOffset": 679920,
      "componentType": 5126,
      "count": 4480,
      "max": [
        96.75,
        71.75,
        26.80000114440918
      ],
      "min": [
        -96.75,
        -96.75,
        0.0
      ],
      "type": "VEC3"
    },
    {
      "bufferView": 1,
      "byteOffset": 733680,
      "componentType": 5126,
      "count": 4480,
      "max": [
        1.0,
        1.0,
        1.0
      ],
      "min": [
        -1.0,
        -1.0,
        -1.0
      ],
      "type": "VEC3"
    },
    {
      "bufferView": 0,
      "byteOffset": 289332,
      "componentType": 5125,
      "count": 14760,
      "type": "SCALAR"
    },
    {
      "bufferView": 1,
      "byteOffset": 787440,
      "componentType": 5126,
      "count": 4480,
      "max": [
        71.75,
        96.75,
        26.80000114440918
      ],
      "min": [
        -96.75,
        -84.25,
        0.0
      ],
      "type": "VEC3"
    },
    {
      "bufferView": 1,
      "byteOffset": 841200,
      "componentType": 5126,
      "count": 4480,
      "max": [
        1.0,
        1.0,
        1.0
      ],
      "min": [
        -1.0,
        -1.0,
        -1.0
      ],
      "type": "VEC3"
    },
    {
      "bufferView": 0,
      "byteOffset": 348372,
      "componentType": 5125,
      "count": 14760,
      "type": "SCALAR"
    },
    {
      "bufferView": 1,
      "byteOffset": 894960,
      "componentType": 5126,
      "count": 3230,
      "max": [
        98.75,
        98.75,
        26.80000114440918
      ],
      "min": [
        -98.75,
        -98.75,
        0.0
      ],
      "type": "VEC3"
    },
    {
      "bufferView": 1,
      "byteOffset": 933720,
      "componentType": 5126,
      "count": 3230,
      "max": [
        1.0,
        1.0,
        1.0
      ],
      "min": [
        -1.0,
        -1.0,
        -1.0
      ],
      "type": "VEC3"
    },
    {
      "bufferView": 0,
      "byteOffset": 407412,
      "componentType": 5125,
      "count": 9744,
      "type": "SCALAR"
    },
    {
      "bufferView": 1,
      "byteOffset": 972480,
      "componentType": 5126,
      "count": 10000,
      "max": [
        98.75,
        98.75,
        26.80000114440918
      ],
      "min": [
        -98.75,
        -98.75,
        0.0
      ],
      "type": "VEC3"
    },
    {
      "bufferView": 1,
      "byteOffset": 1092480,
      "componentType": 5126,
      "count": 10000,
      "max": [
        1.0,
        1.0,
        0.06640315055847168
      ],
      "min": [
        -1.0,
        -1.0,
        -0.06640315055847168
      ],
      "type": "VEC3"
    },
    {
      "bufferView": 0,
      "byteOffset": 446388,
      "componentType": 5125,
      "count": 15000,
      "type": "SCALAR"
    },
    {
      "bufferView": 1,
      "byteOffset": 1212480,
      "componentType": 5126,
      "count": 9912,
      "max": [
        97.5,
        96.75,
        26.80000114440918
      ],
      "min": [
        -98.4375,
        -97.5,
        0.0
      ],
      "type": "VEC3"
    },
    {
      "bufferView": 1,
      "byteOffset": 1331424,
      "componentType": 5126,
      "count": 9912,
      "max": [
        1.0,
        1.0,
        0.0
      ],
      "min": [
        -1.0,
        -1.0,
        -1.0
      ],
      "type": "VEC3"
    },
    {
      "bufferView": 0,
      "byteOffset": 506388,
      "componentType": 5125,
      "count": 14994,
      "type": "SCALAR"
    },
    {
      "bufferView": 1,
      "byteOffset": 1450368,
      "componentType": 5126,
      "count": 920,
      "max": [
        96.5625,
        97.5,
        12.75
      ],
      "min": [
        -98.4375,
        -10.0,
        0.0
      ],
      "type": "VEC3"
    },
    {
      "bufferView": 1,
      "byteOffset": 1461408,
      "componentType": 5126,
      "count": 920,
      "max": [
        1.0,
        1.0,
        0.0
      ],
      "min": [
        -1.0,
        -1.0,
        -1.0
      ],
      "type": "VEC3"
    },
    {
      "bufferView": 0,
      "byteOffset": 566364,
      "componentType": 5125,
      "count": 1410,
      "type": "SCALAR"
    },
    {
      "bufferView": 1,
      "byteOffset": 1472448,
      "componentType": 5126,
      "count": 408,
      "max": [
        100.0,
        100.0,
        0.0
      ],
      "min": [
        -100.0,
        -100.0,
        0.0
      ],
      "type": "VEC3"
    },
    {
      "bufferView": 1,
      "byteOffset": 1477344,
      "componentType": 5126,
      "count": 408,
      "max": [
        0.0,
        -0.0,
        1.0
      ],
      "min": [
        0.0,
        -0.0,
        1.0
      ],
      "type": "VEC3"
    },
    {
      "bufferView": 0,
      "byteOffset": 572004,
      "componentType": 5125,
      "count": 1791,
      "type": "SCALAR"
    },
    {
      "bufferView": 1,
      "byteOffset": 1482240,
      "componentType": 5126,
      "count": 2500,
      "max": [
        24.634784698486328,
        25.116065979003906,
        0.5
      ],
      "min": [
        -24.940181732177734,
        -24.861618041992188,
        0.0
      ],
      "type": "VEC3"
    },
    {
      "bufferView": 1,
      "byteOffset": 1512240,
      "componentType": 5126,
      "count": 2500,
      "max": [
        0.9510656595230103,
        0.9510656595230103,
        0.0
      ],
      "min": [
        -1.0,
        -1.0,
        -1.0
      ],
      "type": "VEC3"
    },
    {
      "bufferView": 0,
      "byteOffset": 579168,
      "componentType": 5125,
      "count": 3900,
      "type": "SCALAR"
    },
    {
      "bufferView": 1,
      "byteOffset": 1542240,
      "componentType": 5126,
      "count": 7000,
      "max": [
        25.098310470581055,
        25.425085067749023,
        3.0
      ],
      "min": [
        -25.234073638916016,
        -25.197031021118164,
        0.2513920068740845
      ],
      "type": "VEC3"
    },
    {
      "bufferView": 1,
      "byteOffset": 1626240,
      "componentType": 5126,
      "count": 7000,
      "max": [
        0.9341834187507629,
        0.9822439551353455,
        0.7946866750717163
      ],
      "min": [
        -0.9606093168258667,
        -0.9822439551353455,
        -1.0
      ],
      "type": "VEC3"
    },
    {
      "bufferView": 0,
      "byteOffset": 594768,
      "componentType": 5125,
      "count": 12000,
      "type": "SCALAR"
    },
    {
      "bufferView": 1,
      "byteOffset": 1710240,
      "componentType": 5126,
      "count": 3000,
      "max": [
        25.37869644165039,
        25.361852645874023,
        0.75
      ],
      "min": [
        -24.812847137451172,
        -22.98312759399414,
        0.0
      ],
      "type": "VEC3"
    },
    {
      "bufferView": 1,
      "byteOffset": 1746240,
      "componentType": 5126,
      "count": 3000,
      "max": [
        0.9341834187507629,
        0.9822439551353455,
        0.7946866750717163
      ],
      "min": [
        -0.9341834187507629,
        -0.9822439551353455,
        -0.9973487854003906
      ],
      "type": "VEC3"
    },
    {
      "bufferView": 0,
      "byteOffset": 642768,
      "componentType": 5125,
      "count": 3000,
      "type": "SCALAR"
    }
  ],
  "asset": {
    "extras": {
      "author": "sidedvirus (https://sketchfab.com/sidedvirus)",
      "license": "CC-BY-4.0 (http://creativecommons.org/licenses/by/4.0/)",
      "source": "https://sketchfab.com/3d-models/vr-sculpture-park-3262efe06d2845b8a10fafa62454f564",
      "title": "VR Sculpture Park"
    },
    "generator": "Sketchfab-12.66.0",
    "version": "2.0"
  },
  "bufferViews": [
    {
      "buffer": 0,
      "byteLength": 654768,
      "name": "floatBufferViews",
      "target": 34963
    },
    {
      "buffer": 0,
      "byteLength": 1782240,
      "byteOffset": 654768,
      "byteStride": 12,
      "name": "floatBufferViews",
      "target": 34962
    }
  ],
  "buffers": [
    {
      "byteLength": 2437008,
      "uri": "scene.bin"
    }
  ],
  "materials": [
    {
      "doubleSided": true,
      "name": "Building_Black",
      "pbrMetallicRoughness": {
        "baseColorFactor": [
          0.01,
          0.01,
          0.01,
          1.0
        ],
        "metallicFactor": 0.0
      }
    },
    {
      "doubleSided": true,
      "name": "Building_Brown",
      "pbrMetallicRoughness": {
        "baseColorFactor": [
          0.25,
          0.1,
          0.0,
          1.0
        ],
        "metallicFactor": 0.0
      }
    },
    {
      "doubleSided": true,
      "name": "Building_Gray",
      "pbrMetallicRoughness": {
        "baseColorFactor": [
          0.25,
          0.25,
          0.25,
          1.0
        ],
        "metallicFactor": 0.0,
        "roughnessFactor": 0.25
      }
    },
    {
      "doubleSided": true,
      "name": "Glass",
      "pbrMetallicRoughness": {
        "baseColorFactor": [
          0.0,
          0.5,
          1.0,
          1.0
        ],
        "metallicFactor": 0.0,
        "roughnessFactor": 0.0
      }
    },
    {
      "doubleSided": true,
      "name": "Grass",
      "pbrMetallicRoughness": {
        "baseColorFactor": [
          0.24999999999999992,
          1.0,
          0.24999999999999992,
          1.0
        ],
        "metallicFactor": 0.0
      }
    },
    {
      "doubleSided": true,
      "name": "Natural_Brown",
      "pbrMetallicRoughness": {
        "baseColorFactor": [
          0.25,
          0.1,
          0.0,
          1.0
        ],
        "metallicFactor": 0.0
      }
    },
    {
      "doubleSided": true,
      "name": "Natural_Green",
      "pbrMetallicRoughness": {
        "baseColorFactor": [
          0.2,
          1.0,
          0.2999999999999998,
          1.0
        ],
        "metallicFactor": 0.0
      }
    },
    {
      "doubleSided": true,
      "name": "Nature_Gray",
      "pbrMetallicRoughness": {
        "baseColorFactor": [
          0.1,
          0.1,
          0.1,
          1.0
        ],
        "metallicFactor": 0.0
      }
    },
    {
      "doubleSided": true,
      "name": "Street",
      "pbrMetallicRoughness": {
        "baseColorFactor": [
          0.05,
          0.05,
          0.05,
          1.0
        ],
        "metallicFactor": 0.0
      }
    }
  ],
  "meshes": [
    {
      "name": "Object_0",
      "primitives": [
        {
          "attributes": {
            "NORMAL": 1,
            "POSITION": 0
          },
          "indices": 2,
          "material": 8,
          "mode": 4
        }
      ]
    },
    {
      "name": "Object_1",
      "primitives": [
        {
          "attributes": {
            "NORMAL": 4,
            "POSITION": 3
          },
          "indices": 5,
          "material": 0,
          "mode": 4
        }
      ]
    },
    {
      "name": "Object_2",
      "primitives": [
        {
          "attributes": {
            "NORMAL": 7,
            "POSITION": 6
          },
          "indices": 8,
          "material": 1,
          "mode": 4
        }
      ]
    },
    {
      "name": "Object_3",
      "primitives": [
        {
          "attributes": {
            "NORMAL": 10,
            "POSITION": 9
          },
          "indices": 11,
          "material": 2,
          "mode": 4
        }
      ]
    },
    {
      "name": "Object_4",
      "primitives": [
        {
          "attributes": {
            "NORMAL": 13,
            "POSITION": 12
          },
          "indices": 14,
          "material": 2,
          "mode": 4
        }
      ]
    },
    {
      "name": "Object_5",
      "primitives": [
        {
          "attributes": {
            "NORMAL": 16,
            "POSITION": 15
          },
          "indices": 17,
          "material": 2,
          "mode": 4
        }
      ]
    },
    {
      "name": "Object_6",
      "primitives": [
        {
          "attributes": {
            "NORMAL": 19,
            "POSITION": 18
          },
          "indices": 20,
          "material": 2,
          "mode": 4
        }
      ]
    },
    {
      "name": "Object_7",
      "primitives": [
        {
          "attributes": {
            "NORMAL": 22,
            "POSITION": 21
          },
          "indices": 23,
          "material": 2,
          "mode": 4
        }
      ]
    },
    {
      "name": "Object_8",
      "primitives": [
        {
          "attributes": {
            "NORMAL": 25,
            "POSITION": 24
          },
          "indices": 26,
          "material": 2,
          "mode": 4
        }
      ]
    },
    {
      "name": "Object_9",
      "primitives": [
        {
          "attributes": {
            "NORMAL": 28,
            "POSITION": 27
          },
          "indices": 29,
          "material": 2,
          "mode": 4
        }
      ]
    },
    {
      "name": "Object_10",
      "primitives": [
        {
          "attributes": {
            "NORMAL": 31,
            "POSITION": 30
          },
          "indices": 32,
          "material": 2,
          "mode": 4
        }
      ]
    },
    {
      "name": "Object_11",
      "primitives": [
        {
          "attributes": {
            "NORMAL": 34,
            "POSITION": 33
          },
          "indices": 35,
          "material": 3,
          "mode": 4
        }
      ]
    },
    {
      "name": "Object_12",
      "primitives": [
        {
          "attributes": {
            "NORMAL": 37,
            "POSITION": 36
          },
          "indices": 38,
          "material": 3,
          "mode": 4
        }
      ]
    },
    {
      "name": "Object_13",
      "primitives": [
        {
          "attributes": {
            "NORMAL": 40,
            "POSITION": 39
          },
          "indices": 41,
          "material": 3,
          "mode": 4
        }
      ]
    },
    {
      "name": "Object_14",
      "primitives": [
        {
          "attributes": {
            "NORMAL": 43,
            "POSITION": 42
          },
          "indices": 44,
          "material": 4,
          "mode": 4
        }
      ]
    },
    {
      "name": "Object_15",
      "primitives": [
        {
          "attributes": {
            "NORMAL": 46,
            "POSITION": 45
          },
          "indices": 47,
          "material": 5,
          "mode": 4
        }
      ]
    },
    {
      "name": "Object_16",
      "primitives": [
        {
          "attributes": {
            "NORMAL": 49,
            "POSITION": 48
          },
          "indices": 50,
          "material": 6,
          "mode": 4
        }
      ]
    },
    {
      "name": "Object_17",
      "primitives": [
        {
          "attributes": {
            "NORMAL": 52,
            "POSITION": 51
          },
          "indices": 53,
          "material": 7,
          "mode": 4
        }
      ]
    }
  ],
  "nodes": [
    {
      "children": [
        1
      ],
      "matrix": [
        1.076104760169983,
        0.0,
        0.0,
        0.0,
        0.0,
        2.389432563298894e-16,
        -1.076104760169983,
        0.0,
        0.0,
        1.076104760169983,
        2.389432563298894e-16,
        0.0,
        0.0,
        0.0,
        0.0,
        1.0
      ],
      "name": "Sketchfab_model"
    },
    {
      "children": [
        2,
        3,
        4,
        5,
        6,
        7,
        8,
        9,
        10,
        11,
        12,
        13,
        14,
        15,
        16,
        17,
        18,
        19
      ],
      "name": "VR Sculpture Park.obj.cleaner.materialmerger.gles"
    },
    {
      "mesh": 0,
      "name": "Object_2"
    },
    {
      "mesh": 1,
      "name": "Object_3"
    },
    {
      "mesh": 2,
      "name": "Object_4"
    },
    {
      "mesh": 3,
      "name": "Object_5"
    },
    {
      "mesh": 4,
      "name": "Object_6"
    },
    {
      "mesh": 5,
      "name": "Object_7"
    },
    {
      "mesh": 6,
      "name": "Object_8"
    },
    {
      "mesh": 7,
      "name": "Object_9"
    },
    {
      "mesh": 8,
      "name": "Object_10"
    },
    {
      "mesh": 9,
      "name": "Object_11"
    },
    {
      "mesh": 10,
      "name": "Object_12"
    },
    {
      "mesh": 11,
      "name": "Object_13"
    },
    {
      "mesh": 12,
      "name": "Object_14"
    },
    {
      "mesh": 13,
      "name": "Object_15"
    },
    {
      "mesh": 14,
      "name": "Object_16"
    },
    {
      "mesh": 15,
      "name": "Object_17"
    },
    {
      "mesh": 16,
      "name": "Object_18"
    },
    {
      "mesh": 17,
      "name": "Object_19"
    }
  ],
  "scene": 0,
  "scenes": [
    {
      "name": "Sketchfab_Scene",
      "nodes": [
        0
      ]
    }
  ]
}
